{"title":"WAKE UP SID 1CD PDVD RIP[TDT] RIP","uid":5113917,"size":788356952,"categoryP":"video","categoryS":"movies","magnet":"?xt=urn:btih:f46e197183f155665a5e7211319e1a3657261f67&amp;dn=WAKE+UP+SID+1CD+PDVD+RIP%5BTDT%5D+RIP&amp;tr=udp%3A%2F%2Ftracker.openbittorrent.com%3A80&amp;tr=udp%3A%2F%2Fopen.demonii.com%3A1337&amp;tr=udp%3A%2F%2Ftracker.coppersurfer.tk%3A6969&amp;tr=udp%3A%2F%2Fexodus.desync.com%3A6969","seeders":0,"leechers":0,"uploader":"ankurcods","files":1,"time":1254957350,"description":"General\nComplete name                    : F:Wake Up Sid-muxed.avi\nFormat                           : AVI\nFormat/Info                      : Audio Video Interleave\nFormat profile                   : OpenDML\nFile size                        : 752 MiB\nDuration                         : 1h 57mn\nOverall bit rate                 : 892 Kbps\nWriting application              : AVI-Mux GUI 1.17.7, Aug  8 2006  20:59:17\n\nVideo\nFormat                           : MPEG-4 Visual\nFormat profile                   : Simple@L1\nFormat settings, BVOP            : No\nFormat settings, QPel            : No\nFormat settings, GMC             : No warppoints\nFormat settings, Matrix          : Default (H.263)\nCodec ID                         : XVID\nCodec ID/Hint                    : XviD\nDuration                         : 1h 57mn\nBit rate                         : 650 Kbps\nWidth                            : 608 pixels\nHeight                           : 288 pixels\nDisplay aspect ratio             : 2.2\nFrame rate                       : 29.970 fps\nResolution                       : 24 bits\nColorimetry                      : 4:2:0\nScan type                        : Interlaced\nScan order                       : Bottom Field First\nBits/(Pixel*Frame)               : 0.124\nStream size                      : 547 MiB (73%)\nWriting library                  : FFmpeg0.4.8b4684\n\nAudio #1\nFormat                           : MPEG Audio\nFormat version                   : Version 1\nFormat profile                   : Layer 3\nCodec ID                         : 55\nCodec ID/Hint                    : MP3\nDuration                         : 1h 57mn\nBit rate mode                    : Constant\nBit rate                         : 128 Kbps\nChannel(s)                       : 2 channels\nSampling rate                    : 48.0 KHz\nResolution                       : 16 bits\nStream size                      : 108 MiB (14%)\nAlignment                        : Aligned on interleaves\nInterleave, duration             : 943 ms (28.26 video frames)\nInterleave, preload duration     : 216 ms\nTitle                            : VTS_01_1 T80 2_0ch 192Kbps DELAY 0ms\nWriting library                  : LAME3.98r\nEncoding settings                : -m j -V 4 -q 2 -lowpass 17 -b 128\n\nAudio #2\nFormat                           : MPEG Audio\nFormat version                   : Version 1\nFormat profile                   : Layer 3\nCodec ID                         : 55\nCodec ID/Hint                    : MP3\nDuration                         : 1h 57mn\nBit rate mode                    : Variable\nBit rate                         : 105 Kbps\nNominal bit rate                 : 112 Kbps\nChannel(s)                       : 2 channels\nSampling rate                    : 44.1 KHz\nResolution                       : 16 bits\nStream size                      : 88.6 MiB (12%)\nAlignment                        : Aligned on interleaves\nInterleave, duration             : 26 ms (0.78 video frame)\nInterleave, preload duration     : 206 ms\nWriting library                  : LAME3.98r\nEncoding settings                : -m j -V 4 -q 2 -lowpass 15.6 --abr 112\nlanguage                         : hindi\n","torrent":{"xt":"urn:btih:f46e197183f155665a5e7211319e1a3657261f67","amp;dn":"WAKE+UP+SID+1CD+PDVD+RIP%5BTDT%5D+RIP","amp;tr":["udp%3A%2F%2Ftracker.openbittorrent.com%3A80","udp%3A%2F%2Fopen.demonii.com%3A1337","udp%3A%2F%2Ftracker.coppersurfer.tk%3A6969","udp%3A%2F%2Fexodus.desync.com%3A6969"],"infoHash":"f46e197183f155665a5e7211319e1a3657261f67","infoHashBuffer":{"type":"Buffer","data":[244,110,25,113,131,241,85,102,90,94,114,17,49,158,26,54,87,38,31,103]},"announce":[],"urlList":[]}}